# xmcd
#
# Track frame offsets: 
#        183
#        17108
#        32783
#        52058
#
# Disc length: 938 seconds
#
# Revision: 2
# Processed by: cddbd v1.5.2PL0 Copyright (c) Steve Scherf et al.
# Submitted via: ExactAudioCopy v0.95b4
#
DISCID=2f03a804
DTITLE=The Robert Cray Band - Don't Be Afraid Of The Dark [CD Single)
DYEAR=1988
DGENRE=Pop
TTITLE0=Don't Be Afraid Of The Dark
TTITLE1=At Last
TTITLE2=Without A Trace
TTITLE3=Smoking Gun
EXTD=
EXTT0=
EXTT1=
EXTT2=
EXTT3=
PLAYORDER=
